<?xml version="1.0" encoding="UTF-8" standalone="no"?>
<!-- Created with Inkscape (http://www.inkscape.org/) -->

<svg
   xmlns:dc="http://purl.org/dc/elements/1.1/"
   xmlns:cc="http://creativecommons.org/ns#"
   xmlns:rdf="http://www.w3.org/1999/02/22-rdf-syntax-ns#"
   xmlns:svg="http://www.w3.org/2000/svg"
   xmlns="http://www.w3.org/2000/svg"
   xmlns:xlink="http://www.w3.org/1999/xlink"
   xmlns:sodipodi="http://sodipodi.sourceforge.net/DTD/sodipodi-0.dtd"
   xmlns:inkscape="http://www.inkscape.org/namespaces/inkscape"
   sodipodi:docname="Logo.svg"
   inkscape:version="0.92.5 (2060ec1f9f, 2020-04-08)"
   id="svg8"
   version="1.1"
   viewBox="0 0 100 100"
   height="100mm"
   width="100mm">
  <defs
     id="defs2" />
  <sodipodi:namedview
     id="base"
     pagecolor="#ffffff"
     bordercolor="#666666"
     borderopacity="1.0"
     inkscape:pageopacity="0.0"
     inkscape:pageshadow="2"
     inkscape:zoom="1.7197917"
     inkscape:cx="189.55784"
     inkscape:cy="189.2647"
     inkscape:document-units="mm"
     inkscape:current-layer="layer4"
     showgrid="false"
     inkscape:window-width="1848"
     inkscape:window-height="1016"
     inkscape:window-x="72"
     inkscape:window-y="27"
     inkscape:window-maximized="1" />
  <metadata
     id="metadata5">
    <rdf:RDF>
      <cc:Work
         rdf:about="">
        <dc:format>image/svg+xml</dc:format>
        <dc:type
           rdf:resource="http://purl.org/dc/dcmitype/StillImage" />
        <dc:title></dc:title>
      </cc:Work>
    </rdf:RDF>
  </metadata>
  <g
     inkscape:groupmode="layer"
     id="layer4"
     inkscape:label="Background"
     sodipodi:insensitive="true">
    <rect
       style="fill:#ffffff;fill-opacity:1;stroke:none;stroke-width:0.20000003;stroke-miterlimit:4;stroke-dasharray:none;stroke-dashoffset:0;stroke-opacity:1"
       id="rect962"
       width="100"
       height="100"
       x="0"
       y="0" />
  </g>
  <g
     inkscape:label="Plot"
     inkscape:groupmode="layer"
     id="layer1"
     transform="translate(0,-197)"
     style="display:inline"
     sodipodi:insensitive="true">
    <path
       id="path895"
       title="cos(6*x)*(6-fabs(x))"
       d="m 0.99069365,241.97598 c 0.0327055,0.23805 0.0654113,0.47986 0.0981167,0.72521 0.032706,0.24534 0.065411,0.49421 0.098116,0.74632 0.032706,0.25212 0.065411,0.5075 0.098116,0.76585 0.032706,0.25834 0.065411,0.51968 0.098116,0.78369 0.032706,0.264 0.06541,0.53071 0.098116,0.7998 0.032706,0.26909 0.065411,0.54058 0.098116,0.81415 0.032706,0.27357 0.065411,0.54923 0.098116,0.82667 0.032706,0.27743 0.065411,0.55664 0.098116,0.83731 0.032706,0.28067 0.065411,0.5628 0.098116,0.84607 0.032706,0.28326 0.065411,0.56766 0.098116,0.85286 0.032706,0.28519 0.065412,0.57121 0.098117,0.85768 0.032706,0.28648 0.065412,0.57343 0.098116,0.86051 0.032706,0.28708 0.065412,0.57429 0.098116,0.8613 0.032706,0.28701 0.065412,0.57382 0.098116,0.86008 0.032706,0.28625 0.065412,0.57195 0.098116,0.85678 0.032706,0.28481 0.065411,0.56873 0.098116,0.85143 0.032705,0.28269 0.065412,0.56415 0.098116,0.84403 0.032705,0.27988 0.065412,0.55817 0.098116,0.83456 0.032705,0.27638 0.065412,0.55084 0.098116,0.82304 0.032705,0.2722 0.065412,0.54214 0.098116,0.80949 0.032705,0.26735 0.065413,0.53209 0.098116,0.79392 0.032705,0.26183 0.065412,0.52071 0.098116,0.77635 0.032705,0.25564 0.065412,0.50801 0.098116,0.75681 0.032705,0.2488 0.065412,0.49402 0.098116,0.73534 0.032705,0.24132 0.065412,0.47875 0.098116,0.71196 0.032705,0.23323 0.065412,0.46224 0.098116,0.68674 0.032705,0.22451 0.065412,0.4445 0.098116,0.65971 0.032705,0.2152 0.065412,0.42559 0.098116,0.6309 0.032705,0.20532 0.065412,0.40554 0.098116,0.60041 0.032705,0.19488 0.065412,0.38439 0.098117,0.56829 0.032705,0.1839 0.065412,0.36216 0.098116,0.53457 0.032705,0.17241 0.065412,0.33893 0.098117,0.49936 0.032705,0.16044 0.065412,0.31474 0.098116,0.46272 0.032705,0.14799 0.065412,0.28963 0.098116,0.42473 0.032705,0.13512 0.065412,0.26366 0.098116,0.38548 0.032705,0.1218 0.065412,0.23686 0.098116,0.345 0.032705,0.10815 0.065412,0.20935 0.098116,0.30347 0.032705,0.0942 0.065412,0.18113 0.098116,0.26092 0.032705,0.0798 0.065412,0.15228 0.098116,0.21744 0.032705,0.0651 0.065413,0.1229 0.098117,0.17317 0.032705,0.0503 0.065412,0.093 0.098116,0.12818 0.032705,0.0352 0.065412,0.0627 0.098116,0.0826 0.032705,0.0199 0.065412,0.032 0.098116,0.0365 0.032705,0.004 0.065412,10e-4 0.098116,-0.0103 0.032705,-0.0112 0.065412,-0.03 0.098116,-0.0568 0.032705,-0.0268 0.065413,-0.0614 0.098117,-0.10382 0.032705,-0.0425 0.065412,-0.0927 0.098116,-0.15088 0.032705,-0.0582 0.065412,-0.12412 0.098116,-0.19789 0.032705,-0.0738 0.065412,-0.1554 0.098116,-0.24475 0.032705,-0.0893 0.065412,-0.18652 0.098116,-0.29135 0.032705,-0.10483 0.065412,-0.21739 0.098116,-0.33756 0.032705,-0.12016 0.065412,-0.24797 0.098116,-0.38328 0.032705,-0.1353 0.065413,-0.27816 0.098116,-0.42841 0.032705,-0.15023 0.065412,-0.3079 0.098116,-0.4728 0.032705,-0.16492 0.065412,-0.33711 0.098116,-0.5164 0.032705,-0.17929 0.065412,-0.36571 0.098116,-0.55906 0.032705,-0.19333 0.065412,-0.39362 0.098116,-0.60065 0.032705,-0.20702 0.065412,-0.42082 0.098116,-0.64112 0.032705,-0.22031 0.065413,-0.44718 0.098116,-0.68034 0.032705,-0.23315 0.065412,-0.47265 0.098117,-0.7182 0.032705,-0.24555 0.065412,-0.49718 0.098116,-0.75461 0.032705,-0.25743 0.065412,-0.52069 0.098116,-0.78948 0.032705,-0.26879 0.065412,-0.54314 0.098116,-0.82271 0.032705,-0.27958 0.065412,-0.56444 0.098116,-0.85422 0.032705,-0.28979 0.065413,-0.58454 0.098116,-0.88391 0.032705,-0.29937 0.065412,-0.60339 0.098116,-0.9117 0.032705,-0.30831 0.065412,-0.62095 0.098116,-0.93753 0.032705,-0.31659 0.065412,-0.63715 0.098116,-0.96132 0.032705,-0.32416 0.065412,-0.65194 0.098116,-0.98297 0.032705,-0.33102 0.065412,-0.66531 0.098116,-1.00246 0.032705,-0.33715 0.065412,-0.67718 0.098116,-1.0197 0.032705,-0.34253 0.065412,-0.68754 0.098116,-1.03466 0.032705,-0.34712 0.065412,-0.69635 0.098116,-1.04728 0.032705,-0.35092 0.065412,-0.70356 0.098116,-1.05749 0.032705,-0.35393 0.065412,-0.70916 0.098116,-1.06529 0.032705,-0.35613 0.065412,-0.71314 0.098116,-1.07063 0.032705,-0.35749 0.065412,-0.71546 0.098116,-1.07349 0.032705,-0.35803 0.065412,-0.71611 0.098116,-1.07383 0.032705,-0.35773 0.065412,-0.71508 0.098116,-1.07165 0.032705,-0.35658 0.065412,-0.71236 0.098116,-1.06694 0.032705,-0.35458 0.065412,-0.70794 0.098116,-1.05969 0.032705,-0.35173 0.065412,-0.70184 0.098116,-1.0499 0.032705,-0.34805 0.065412,-0.69405 0.098116,-1.03758 0.032705,-0.34354 0.065413,-0.68459 0.098116,-1.02276 0.032705,-0.33818 0.065412,-0.67346 0.098116,-1.00545 0.032705,-0.33199 0.065412,-0.66066 0.098117,-0.98565 0.032705,-0.32499 0.065412,-0.64626 0.098116,-0.96344 0.032705,-0.31717 0.065412,-0.63023 0.098116,-0.93881 0.032705,-0.30858 0.065412,-0.61265 0.098116,-0.91185 0.032705,-0.2992 0.065412,-0.59351 0.098116,-0.88258 0.03271,-0.28906 0.065412,-0.57286 0.098116,-0.85106 0.0327,-0.2782 0.065412,-0.55077 0.098116,-0.81737 0.03271,-0.26661 0.06541,-0.52723 0.09812,-0.78155 0.03271,-0.25432 0.06541,-0.50232 0.09812,-0.74369 0.03271,-0.24138 0.06541,-0.47608 0.09812,-0.70386 0.03271,-0.22779 0.06541,-0.44859 0.09812,-0.66217 0.03271,-0.21357 0.06541,-0.41986 0.09812,-0.61865 0.03271,-0.19878 0.06541,-0.39 0.09812,-0.57344 0.03271,-0.18344 0.06541,-0.35905 0.09812,-0.52664 0.03271,-0.16758 0.06541,-0.32708 0.09812,-0.47831 0.0327,-0.15123 0.06542,-0.29416 0.09812,-0.4286 0.0327,-0.13445 0.06541,-0.26036 0.09812,-0.3776 0.0327,-0.11724 0.06542,-0.22576 0.09812,-0.32542 0.0327,-0.0997 0.06541,-0.19042 0.09812,-0.27218 0.0327,-0.0817 0.06542,-0.15445 0.09812,-0.218 0.0327,-0.0636 0.06542,-0.11791 0.09812,-0.16301 0.0327,-0.0451 0.06541,-0.0809 0.09812,-0.10732 0.0327,-0.0265 0.06542,-0.0435 0.09812,-0.0511 0.0327,-0.007 0.06541,-0.006 0.09812,0.005 0.0327,0.0114 0.06542,0.0322 0.09812,0.0626 0.0327,0.0304 0.06541,0.0703 0.09812,0.11974 0.0327,0.0494 0.06542,0.10844 0.09812,0.17693 0.0327,0.0685 0.06542,0.14652 0.09812,0.234 0.0327,0.0875 0.06542,0.18448 0.09812,0.29086 0.0327,0.10638 0.06542,0.22221 0.09812,0.34735 0.0327,0.12513 0.06541,0.25963 0.09812,0.40332 0.0327,0.1437 0.06542,0.29664 0.09812,0.45866 0.0327,0.16202 0.06541,0.33316 0.09812,0.51322 0.0327,0.18006 0.06542,0.36909 0.09812,0.56688 0.0327,0.19778 0.06541,0.40436 0.09812,0.61949 0.0327,0.21513 0.06542,0.43887 0.09812,0.67094 0.0327,0.23208 0.06542,0.47254 0.09812,0.72111 0.0327,0.24856 0.06541,0.50527 0.09812,0.76982 0.0327,0.26457 0.06542,0.53701 0.09812,0.81703 0.0327,0.28002 0.06541,0.56764 0.09812,0.86255 0.0327,0.29491 0.06542,0.59713 0.09812,0.90631 0.0327,0.30917 0.06541,0.62536 0.09812,0.94815 0.0327,0.32281 0.06542,0.65229 0.09812,0.98803 0.0327,0.33575 0.06541,0.67781 0.09812,1.02578 0.0327,0.34797 0.06542,0.70189 0.09812,1.06134 0.0327,0.35944 0.06542,0.72444 0.09812,1.09458 0.0327,0.37014 0.06541,0.74544 0.09812,1.12545 0.0327,0.38003 0.06542,0.76479 0.09812,1.15386 0.0327,0.38906 0.06541,0.78244 0.09812,1.17968 0.0327,0.39724 0.06542,0.79836 0.09812,1.20289 0.0327,0.40453 0.06541,0.81249 0.09812,1.22341 0.0327,0.41092 0.06542,0.8248 0.09812,1.24116 0.0327,0.41637 0.06541,0.83524 0.09812,1.25611 0.0327,0.42087 0.06542,0.84378 0.09812,1.2682 0.0327,0.42441 0.06542,0.85037 0.09812,1.27735 0.0327,0.427 0.06542,0.85503 0.09812,1.28361 0.0327,0.42856 0.06542,0.85768 0.09812,1.28684 0.0327,0.42917 0.06542,0.85837 0.09812,1.28712 0.0327,0.42875 0.06542,0.85704 0.09812,1.28437 0.0327,0.42734 0.06542,0.85371 0.09812,1.27861 0.0327,0.42491 0.06542,0.84835 0.09812,1.26983 0.0327,0.42147 0.06542,0.84097 0.09812,1.25802 0.0327,0.41704 0.06542,0.8316 0.09812,1.24321 0.0327,0.41161 0.06542,0.82025 0.09812,1.22544 0.0327,0.40518 0.06541,0.8069 0.09812,1.20469 0.0327,0.39779 0.06542,0.79161 0.09812,1.18103 0.0327,0.38941 0.06541,0.77439 0.09812,1.15448 0.0327,0.3801 0.06542,0.75528 0.09812,1.12512 0.0327,0.36983 0.06541,0.7343 0.09812,1.09296 0.0327,0.35867 0.06542,0.7115 0.09812,1.05809 0.0327,0.3466 0.06542,0.68693 0.09812,1.02059 0.0327,0.33366 0.06542,0.66062 0.09812,0.9805 0.0327,0.31988 0.06542,0.63265 0.09812,0.93793 0.0327,0.30529 0.06541,0.60306 0.09812,0.89296 0.0327,0.28991 0.06542,0.5719 0.09812,0.84568 0.0327,0.27377 0.06541,0.53927 0.09812,0.79619 0.0327,0.25691 0.06542,0.50521 0.09812,0.74459 0.0327,0.2394 0.06541,0.46982 0.09812,0.69103 0.0327,0.22121 0.06542,0.43314 0.09812,0.63557 0.0327,0.20242 0.06542,0.39528 0.09812,0.57835 0.0327,0.18308 0.06541,0.35631 0.09812,0.51952 0.0327,0.16321 0.06542,0.31634 0.09812,0.4592 0.0327,0.14287 0.06541,0.27542 0.09812,0.3975 0.0327,0.12209 0.06542,0.23366 0.09812,0.33459 0.0327,0.10093 0.06541,0.19115 0.09812,0.27058 0.0327,0.0794 0.06542,0.14801 0.09812,0.20565 0.0327,0.0576 0.06541,0.10431 0.09812,0.13993 0.0327,0.0356 0.06542,0.0601 0.09812,0.0736 0.0327,0.0134 0.06542,0.0157 0.09812,0.007 0.0327,-0.009 0.06541,-0.0291 0.09812,-0.0604 0.0327,-0.0314 0.06542,-0.074 0.09812,-0.12783 0.0327,-0.0539 0.06541,-0.11891 0.09812,-0.19518 0.0327,-0.0763 0.06542,-0.16377 0.09812,-0.26241 0.0327,-0.0987 0.06541,-0.20847 0.09812,-0.32935 0.0327,-0.12088 0.06542,-0.25287 0.09812,-0.39582 0.0327,-0.14295 0.06541,-0.2969 0.09812,-0.46168 0.0327,-0.16477 0.06542,-0.34043 0.09812,-0.52676 0.0327,-0.18632 0.06542,-0.38338 0.09812,-0.59093 0.0327,-0.20753 0.06542,-0.42562 0.09812,-0.65398 0.0327,-0.22837 0.06542,-0.46709 0.09812,-0.71584 0.0327,-0.24875 0.06542,-0.50763 0.09812,-0.77628 0.0327,-0.26866 0.06542,-0.54717 0.09812,-0.8352 0.0327,-0.28803 0.06542,-0.58562 0.09812,-0.89243 0.0327,-0.30681 0.06542,-0.62289 0.09812,-0.94785 0.0327,-0.32495 0.06542,-0.65886 0.09812,-1.00129 0.0327,-0.34244 0.06542,-0.69347 0.09812,-1.05266 0.0327,-0.35919 0.06542,-0.7266 0.09812,-1.10179 0.0327,-0.37518 0.06542,-0.75819 0.09812,-1.14857 0.0327,-0.39038 0.06542,-0.78817 0.09812,-1.19289 0.0327,-0.40473 0.06542,-0.81643 0.09812,-1.23462 0.0327,-0.4182 0.06542,-0.84292 0.09812,-1.27367 0.0327,-0.43074 0.06542,-0.86755 0.09812,-1.3099 0.0327,-0.44234 0.06542,-0.89027 0.09812,-1.34324 0.0327,-0.45298 0.06542,-0.91103 0.09812,-1.37361 0.0327,-0.46258 0.06542,-0.92974 0.09812,-1.4009 0.0327,-0.47117 0.06542,-0.94637 0.09812,-1.42505 0.0327,-0.47867 0.06542,-0.96085 0.09812,-1.44596 0.0327,-0.48512 0.06542,-0.97317 0.09812,-1.46362 0.0327,-0.49044 0.06542,-0.98327 0.09812,-1.47793 0.0327,-0.49464 0.06542,-0.99112 0.09812,-1.48885 0.0327,-0.49772 0.06542,-0.9967 0.09812,-1.49635 0.0327,-0.49965 0.06542,-0.99997 0.09812,-1.50039 0.0327,-0.50042 0.06542,-1.00093 0.09812,-1.50096 0.0327,-0.50002 0.06542,-0.99956 0.09812,-1.49802 0.0327,-0.49846 0.06542,-0.99585 0.09812,-1.49158 0.0327,-0.49572 0.06542,-0.98979 0.09812,-1.48161 0.0327,-0.49184 0.06542,-0.98142 0.09812,-1.46818 0.0327,-0.48677 0.06542,-0.97071 0.09812,-1.45126 0.0327,-0.48054 0.06542,-0.95767 0.09812,-1.43085 0.0327,-0.47318 0.06542,-0.94237 0.09812,-1.40705 0.0327,-0.46467 0.06542,-0.9248 0.09812,-1.37985 0.0327,-0.45505 0.06542,-0.905 0.09812,-1.34933 0.0327,-0.44433 0.06541,-0.883 0.09812,-1.31552 0.0327,-0.43251 0.06542,-0.85884 0.09812,-1.27849 0.0327,-0.41967 0.06541,-0.8326 0.09812,-1.23836 0.0327,-0.40575 0.06542,-0.80428 0.09812,-1.19513 0.0327,-0.39085 0.06541,-0.77398 0.09812,-1.14895 0.0327,-0.37498 0.06542,-0.74174 0.09812,-1.0999 0.0327,-0.35815 0.06541,-0.70764 0.09812,-1.04806 0.0327,-0.34044 0.06542,-0.67176 0.09812,-0.99359 0.0327,-0.32184 0.06542,-0.63413 0.09812,-0.93655 0.0327,-0.30241 0.06541,-0.59488 0.09812,-0.87709 0.0327,-0.28221 0.06542,-0.55409 0.09812,-0.81534 0.0327,-0.26125 0.06541,-0.51183 0.09812,-0.75143 0.0327,-0.23961 0.06542,-0.46819 0.09812,-0.6855 0.0327,-0.21732 0.06541,-0.4233 0.09812,-0.61772 0.0327,-0.19441 0.06542,-0.3772 0.09812,-0.54818 0.0327,-0.17098 0.06541,-0.33007 0.09812,-0.4771 0.0327,-0.14705 0.06542,-0.28196 0.09812,-0.40462 0.0327,-0.12266 0.06542,-0.23299 0.09812,-0.33088 0.0327,-0.0979 0.06541,-0.18327 0.09812,-0.25607 0.0327,-0.0728 0.06542,-0.13293 0.09812,-0.18035 0.0327,-0.0474 0.06541,-0.0821 0.09812,-0.10391 0.0327,-0.0219 0.06542,-0.0308 0.09812,-0.0269 0.0327,0.004 0.06541,0.0207 0.09812,0.0505 0.0327,0.0298 0.06542,0.0724 0.09812,0.12804 0.0327,0.0556 0.06541,0.12419 0.09812,0.20563 0.0327,0.0814 0.06542,0.17585 0.09812,0.28306 0.0327,0.10722 0.06542,0.22732 0.09812,0.36015 0.0327,0.13284 0.06542,0.27846 0.09812,0.43671 0.0327,0.15824 0.06542,0.32917 0.09812,0.51255 0.0327,0.18339 0.06542,0.37931 0.09812,0.58752 0.0327,0.20821 0.06542,0.42877 0.09812,0.66142 0.0327,0.23263 0.06542,0.47743 0.09812,0.73405 0.0327,0.25664 0.06542,0.52518 0.09812,0.8053 0.0327,0.28012 0.06542,0.57189 0.09812,0.87494 0.0327,0.30305 0.06542,0.61746 0.09812,0.94282 0.0327,0.32538 0.06542,0.66177 0.09812,1.00878 0.0327,0.34702 0.06542,0.70471 0.09812,1.07266 0.0327,0.36794 0.06542,0.74618 0.09812,1.13428 0.0327,0.38809 0.06542,0.78608 0.09812,1.19351 0.0327,0.40741 0.06542,0.82431 0.09812,1.25019 0.0327,0.42588 0.06542,0.86078 0.09812,1.30419 0.0327,0.44342 0.06542,0.89538 0.09812,1.35537 0.0327,0.45998 0.06542,0.92804 0.09812,1.40358 0.0327,0.47556 0.06542,0.95866 0.09812,1.44873 0.0327,0.49008 0.06542,0.98717 0.09812,1.49068 0.0327,0.50351 0.06542,1.01348 0.09812,1.52931 0.0327,0.51583 0.06542,1.03755 0.09812,1.56455 0.0327,0.52699 0.06542,1.05929 0.09812,1.59627 0.0327,0.53696 0.06542,1.07865 0.09812,1.62439 0.0327,0.54575 0.06542,1.09559 0.09812,1.64887 0.0327,0.55327 0.06542,1.11002 0.09812,1.66957 0.0327,0.55956 0.06542,1.12194 0.09812,1.68649 0.0327,0.56455 0.06542,1.13128 0.09812,1.69954 0.0327,0.56825 0.06542,1.13803 0.09812,1.70869 0.0327,0.57064 0.06542,1.14216 0.09812,1.71389 0.0327,0.57172 0.06542,1.14365 0.09812,1.71512 0.0327,0.57147 0.06542,1.14248 0.09812,1.71237 0.0327,0.56989 0.06542,1.13865 0.09812,1.70563 0.0327,0.56698 0.06542,1.13215 0.09812,1.69488 0.0327,0.56273 0.06542,1.123 0.09812,1.68016 0.0327,0.55716 0.06542,1.1112 0.09812,1.66147 0.0327,0.55027 0.06541,1.09676 0.09812,1.63883 0.0327,0.54208 0.06542,1.07972 0.09812,1.61231 0.0327,0.53259 0.06541,1.0601 0.09812,1.58193 0.0327,0.52183 0.06542,1.03794 0.09812,1.54776 0.0327,0.5098 0.06541,1.01328 0.09812,1.50984 0.0327,0.49656 0.06542,0.98618 0.09812,1.46829 0.0327,0.48211 0.06541,0.95667 0.09812,1.42316 0.0327,0.46648 0.06542,0.92484 0.09812,1.37455 0.0327,0.4497 0.06542,0.89072 0.09812,1.32256 0.0327,0.43183 0.06541,0.85441 0.09812,1.26729 0.0327,0.41288 0.06542,0.81599 0.09812,1.20889 0.0327,0.39289 0.06541,0.77551 0.09812,1.14744 0.0327,0.37192 0.06542,0.73308 0.09812,1.0831 0.0327,0.35001 0.06541,0.6888 0.09812,1.016 0.0327,0.32721 0.06542,0.64275 0.09812,0.9463 0.0327,0.30354 0.06542,0.59502 0.09812,0.87412 0.0327,0.2791 0.06542,0.54575 0.09812,0.79967 0.0327,0.25392 0.06542,0.49502 0.09812,0.72306 0.0327,0.22805 0.06541,0.44296 0.09812,0.64451 0.0327,0.20156 0.06542,0.38967 0.09812,0.56416 0.0327,0.1745 0.06542,0.33529 0.09812,0.48222 0.0327,0.14692 0.06542,0.27991 0.09812,0.39882 0.0327,0.11893 0.06542,0.2237 0.09812,0.31424 0.0327,0.0906 0.06542,0.16676 0.09812,0.2286 0.0327,0.0618 0.06542,0.10921 0.09812,0.14211 0.0327,0.0329 0.06542,0.0512 0.09812,0.055 0.0327,0.004 0.06542,-0.007 0.09812,-0.0326 0.0327,-0.0254 0.06542,-0.0657 0.09812,-0.12039 0.0327,-0.0548 0.06542,-0.12421 0.09812,-0.20823 0.0327,-0.084 0.06542,-0.18272 0.09812,-0.29592 0.0327,-0.1132 0.06542,-0.241 0.09812,-0.38321 0.0327,-0.14223 0.06542,-0.29894 0.09812,-0.46995 0.0327,-0.171 0.06542,-0.35638 0.09812,-0.55588 0.0327,-0.19949 0.06542,-0.4132 0.09812,-0.64083 0.0327,-0.22764 0.06542,-0.46926 0.09812,-0.7246 0.0327,-0.25533 0.06542,-0.52444 0.09812,-0.80699 0.0327,-0.28254 0.06542,-0.57858 0.09812,-0.88778 0.0327,-0.30919 0.06542,-0.63158 0.09812,-0.96679 0.0327,-0.33521 0.06542,-0.68331 0.09812,-1.04385 0.0327,-0.36055 0.06542,-0.73361 0.09812,-1.11875 0.0327,-0.38513 0.06542,-0.78239 0.09812,-1.1913 0.0327,-0.40891 0.06542,-0.82953 0.09812,-1.26134 0.0327,-0.43183 0.06542,-0.87491 0.09812,-1.32871 0.0327,-0.45381 0.06542,-0.9184 0.09812,-1.39321 0.0327,-0.47482 0.06542,-0.95992 0.09812,-1.45471 0.0327,-0.49479 0.06542,-0.99935 0.09812,-1.51303 0.0327,-0.51369 0.06542,-1.03659 0.09812,-1.56805 0.0327,-0.53147 0.06542,-1.07154 0.09812,-1.61961 0.0327,-0.54806 0.06542,-1.10413 0.09812,-1.66758 0.0327,-0.56344 0.06541,-1.13428 0.09812,-1.71185 0.0327,-0.57755 0.06542,-1.16188 0.09812,-1.75228 0.0327,-0.59039 0.06542,-1.1869 0.09812,-1.7888 0.0327,-0.60189 0.06542,-1.20922 0.09812,-1.82126 0.0327,-0.61205 0.06542,-1.22883 0.09812,-1.84962 0.0327,-0.62081 0.06542,-1.24564 0.09812,-1.87378 0.0327,-0.62815 0.06542,-1.25961 0.09812,-1.89367 0.0327,-0.63404 0.06542,-1.2707 0.09812,-1.9092 0.0327,-0.63851 0.06542,-1.27889 0.09812,-1.92038 0.0327,-0.64149 0.06542,-1.28412 0.09812,-1.92712 0.0327,-0.643 0.06542,-1.28639 0.09812,-1.92941 0.0327,-0.64301 0.06542,-1.28568 0.09812,-1.92721 0.0327,-0.64155 0.06542,-1.28198 0.09812,-1.92055 0.0327,-0.63857 0.06542,-1.27528 0.09812,-1.90939 0.0327,-0.6341 0.06542,-1.2656 0.09812,-1.89374 0.0327,-0.62816 0.06542,-1.25296 0.09812,-1.87368 0.0327,-0.62071 0.06542,-1.23733 0.09812,-1.84915 0.0327,-0.61181 0.06542,-1.2188 0.09812,-1.82027 0.0327,-0.60147 0.06542,-1.19738 0.09812,-1.78706 0.0327,-0.58968 0.06542,-1.1731 0.09812,-1.74959 0.0327,-0.57648 0.06542,-1.146 0.09812,-1.70791 0.0327,-0.56191 0.06542,-1.11616 0.09812,-1.66214 0.0327,-0.54598 0.06542,-1.08363 0.09812,-1.61235 0.0327,-0.52873 0.06542,-1.04847 0.09812,-1.55866 0.0327,-0.51018 0.06542,-1.01075 0.09812,-1.50115 0.0327,-0.49039 0.06542,-0.97057 0.09812,-1.43998 0.0327,-0.46941 0.06542,-0.92799 0.09812,-1.37524 0.0327,-0.44727 0.06542,-0.88312 0.09812,-1.30711 0.0327,-0.42401 0.06542,-0.83606 0.09812,-1.23572 0.0327,-0.39967 0.06542,-0.78688 0.09812,-1.16122 0.0327,-0.37434 0.06542,-0.73571 0.09812,-1.08377 0.0327,-0.34805 0.06542,-0.68267 0.09812,-1.00354 0.0327,-0.32087 0.06542,-0.6279 0.09812,-0.92074 0.0327,-0.29286 0.06542,-0.57146 0.09812,-0.83552 0.0327,-0.26406 0.06542,-0.5135 0.09812,-0.74807 0.0327,-0.23456 0.06542,-0.45417 0.09812,-0.6586 0.0327,-0.20443 0.06542,-0.39359 0.09812,-0.56731 0.0327,-0.17373 0.06542,-0.33191 0.09812,-0.47442 0.0327,-0.1425 0.06542,-0.26924 0.09812,-0.3801 0.0327,-0.11086 0.06541,-0.20576 0.09812,-0.28461 0.0327,-0.0789 0.06542,-0.14158 0.09812,-0.18814 0.0327,-0.0466 0.06542,-0.0768 0.09812,-0.0909 0.0327,-0.0141 0.06542,-0.0118 0.09812,0.007 0.0327,0.0186 0.06541,0.0535 0.09812,0.10485 0.0327,0.0513 0.06542,0.11899 0.09812,0.20298 0.0327,0.084 0.06542,0.18434 0.09812,0.30093 0.0327,0.11657 0.06542,0.24948 0.09812,0.3985 0.0327,0.14902 0.06542,0.31425 0.09812,0.49547 0.0327,0.18121 0.06541,0.3785 0.09812,0.59158 0.0327,0.21309 0.06542,0.44208 0.09812,0.68665 0.0327,0.24457 0.06542,0.50482 0.09812,0.78041 0.0327,0.27559 0.06542,0.56659 0.09812,0.87265 0.0327,0.30607 0.06541,0.62727 0.09812,0.96319 0.0327,0.33591 0.06542,0.68664 0.09812,1.05175 0.0327,0.36509 0.06542,0.74463 0.09812,1.13814 0.0327,0.39352 0.06542,0.80109 0.09812,1.22219 0.0327,0.42112 0.06542,0.85585 0.09812,1.30367 0.0327,0.44782 0.06542,0.90879 0.09812,1.38235 0.0327,0.47357 0.06542,0.9598 0.09812,1.4581 0.0327,0.4983 0.06542,1.00874 0.09812,1.53068 0.0327,0.52195 0.06542,1.05548 0.09812,1.59995 0.0327,0.54446 0.06542,1.09993 0.09812,1.66571 0.0327,0.56579 0.06542,1.14195 0.09812,1.72782 0.0327,0.58585 0.06542,1.18147 0.09812,1.7861 0.0327,0.60464 0.06542,1.21836 0.09812,1.84043 0.0327,0.62207 0.06542,1.25253 0.09812,1.89064 0.0327,0.63812 0.06542,1.28392 0.09812,1.93664 0.0327,0.65272 0.06542,1.31241 0.09812,1.97827 0.0327,0.66587 0.06542,1.33795 0.09812,2.01545 0.0327,0.67749 0.06542,1.36045 0.09812,2.04804 0.0327,0.6876 0.06542,1.37988 0.09812,2.07601 0.0327,0.69613 0.06542,1.39615 0.09812,2.09923 0.0327,0.70308 0.06542,1.40924 0.09812,2.11765 0.0327,0.7084 0.06542,1.41909 0.09812,2.1312 0.0327,0.71212 0.06542,1.42569 0.09812,2.13987 0.0327,0.71418 0.06542,1.42899 0.09812,2.14359 0.0327,0.7146 0.06542,1.42898 0.09812,2.14233 0.0327,0.71336 0.06542,1.42567 0.09812,2.13612 0.0327,0.71044 0.06542,1.41902 0.09812,2.12491 0.0327,0.70588 0.06542,1.40907 0.09812,2.10874 0.0327,0.69968 0.06542,1.39582 0.09812,2.08764 0.0327,0.69182 0.06542,1.37929 0.09812,2.06162 0.0327,0.68233 0.06542,1.3595 0.09812,2.03073 0.0327,0.67124 0.06542,1.3365 0.09812,1.99504 0.0327,0.65854 0.06542,1.31032 0.09812,1.95462 0.0327,0.64428 0.06542,1.28103 0.09812,1.90952 0.0327,0.62849 0.06542,1.24868 0.09812,1.85987 0.0327,0.61119 0.06542,1.21334 0.09812,1.80576 0.0327,0.59242 0.06542,1.17505 0.09812,1.74727 0.0327,0.57222 0.06542,1.13395 0.09812,1.68457 0.0327,0.55063 0.06542,1.09008 0.09812,1.61778 0.0327,0.52768 0.06541,1.04354 0.09812,1.54701 0.0327,0.50346 0.06542,0.99446 0.09812,1.47245 0.0327,0.478 0.06542,0.94292 0.09812,1.39427 0.0327,0.45134 0.06542,0.88903 0.09812,1.31259 0.0327,0.42356 0.06541,0.83292 0.09812,1.22763 0.0327,0.39472 0.06542,0.77471 0.09812,1.13959 0.0327,0.36486 0.06542,0.71453 0.09812,1.04862 0.0327,0.33408 0.06542,0.65251 0.09812,0.95495 0.0327,0.30243 0.06542,0.5888 0.09812,0.85879 0.0327,0.27 0.06541,0.52353 0.09812,0.76036 0.0327,0.23684 0.06542,0.45685 0.09812,0.65987 0.0327,0.20302 0.06542,0.38892 0.09812,0.55756 0.0327,0.16862 0.06542,0.31988 0.09812,0.45363 0.0327,0.13376 0.06542,0.24991 0.09812,0.34837 0.0327,0.0985 0.06541,0.17914 0.09812,0.24198 0.0327,0.0629 0.06542,0.10776 0.09812,0.13472 0.0327,0.027 0.06542,0.0359 0.09812,0.0269 0.0327,-0.009 0.06542,-0.0362 0.09812,-0.0814 0.0327,-0.0452 0.06541,-0.1085 0.09812,-0.18981 0.0327,-0.0813 0.06542,-0.18074 0.09812,-0.29809 0.0327,-0.11736 0.06542,-0.25276 0.09812,-0.40598 0.0327,-0.15323 0.06542,-0.3244 0.09812,-0.51324 0.0327,-0.18885 0.06542,-0.39549 0.09812,-0.61963 0.0327,-0.22413 0.06542,-0.46587 0.09812,-0.72486 0.0327,-0.25901 0.06542,-0.53538 0.09812,-0.82876 0.0327,-0.29337 0.06542,-0.60384 0.09812,-0.931 0.0327,-0.32716 0.06542,-0.6711 0.09812,-1.03139 0.0327,-0.36028 0.06542,-0.73701 0.09812,-1.12968 0.0327,-0.39266 0.06542,-0.80138 0.09812,-1.22562 0.0327,-0.42424 0.06542,-0.86409 0.09812,-1.319 0.0327,-0.45491 0.06542,-0.92497 0.09812,-1.40959 0.0327,-0.48462 0.06542,-0.98388 0.09812,-1.49716 0.0327,-0.51329 0.06542,-1.04068 0.09812,-1.58153 0.0327,-0.54084 0.06542,-1.09522 0.09812,-1.66245 0.0327,-0.56721 0.06542,-1.14737 0.09812,-1.73974 0.0327,-0.59237 0.06542,-1.19702 0.09812,-1.81323 0.0327,-0.61621 0.06542,-1.24404 0.09812,-1.88272 0.0327,-0.63869 0.06542,-1.2883 0.09812,-1.94805 0.0327,-0.65974 0.06542,-1.32969 0.09812,-2.00902 0.0327,-0.67935 0.06542,-1.36813 0.09812,-2.06553 0.0327,-0.6974 0.06542,-1.40349 0.09812,-2.11739 0.0327,-0.71391 0.06542,-1.4357 0.09812,-2.1645 0.0327,-0.72881 0.06542,-1.46466 0.09812,-2.20671 0.0327,-0.74205 0.06542,-1.49033 0.09812,-2.24394 0.0327,-0.75361 0.06542,-1.51258 0.09812,-2.27604 0.0327,-0.76345 0.06542,-1.53141 0.09812,-2.30297 0.0327,-0.77156 0.06542,-1.54674 0.09812,-2.32464 0.0327,-0.77789 0.06542,-1.55851 0.09812,-2.34096 0.0327,-0.78244 0.06542,-1.56672 0.09812,-2.35192 0.0327,-0.78519 0.06542,-1.57131 0.09812,-2.35743 0.0327,-0.78613 0.06542,-1.57228 0.09812,-2.35752 0.0327,-0.78523 0.06542,-1.56958 0.09812,-2.35211 0.0327,-0.78254 0.06542,-1.56325 0.09812,-2.34125 0.0327,-0.778 0.06542,-1.55328 0.09812,-2.32493 0.0327,-0.77165 0.06542,-1.53967 0.09812,-2.30316 0.0327,-0.7635 0.06542,-1.52246 0.09812,-2.276 0.0327,-0.75355 0.06542,-1.50166 0.09812,-2.24349 0.0327,-0.74182 0.06542,-1.47733 0.09812,-2.20567 0.0327,-0.72836 0.06542,-1.44951 0.09812,-2.16265 0.0327,-0.71315 0.06542,-1.41824 0.09812,-2.1145 0.0327,-0.69625 0.06542,-1.38359 0.09812,-2.06129 0.0327,-0.67769 0.06541,-1.34566 0.09812,-2.00316 0.0327,-0.65752 0.06542,-1.3045 0.09812,-1.94025 0.0327,-0.63575 0.06542,-1.26019 0.09812,-1.87265 0.0327,-0.61244 0.06542,-1.21283 0.09812,-1.80051 0.0327,-0.58768 0.06542,-1.16256 0.09812,-1.72402 0.0327,-0.56147 0.06541,-1.10944 0.09812,-1.64332 0.0327,-0.53389 0.06542,-1.0536 0.09812,-1.55859 0.0327,-0.50498 0.06542,-0.99515 0.09812,-1.47 0.0327,-0.47485 0.06542,-0.93427 0.09812,-1.37778 0.0327,-0.44352 0.06541,-0.87103 0.09812,-1.28211 0.0327,-0.41107 0.06542,-0.80561 0.09812,-1.18321 0.0327,-0.37759 0.06542,-0.73814 0.09812,-1.08129 0.0327,-0.34314 0.06542,-0.66878 0.09812,-0.97659 0.0327,-0.30781 0.06542,-0.59768 0.09812,-0.86934 0.0327,-0.27167 0.06541,-0.52501 0.09812,-0.7598 0.0327,-0.2348 0.06542,-0.45093 0.09812,-0.6482 0.0327,-0.19728 0.06542,-0.37559 0.09812,-0.53479 0.0327,-0.1592 0.06542,-0.29918 0.09812,-0.41984 0.0327,-0.12065 0.06541,-0.22187 0.09812,-0.30361 0.0327,-0.0817 0.06542,-0.14384 0.09812,-0.18635 0.0327,-0.0425 0.06542,-0.0425 0.09812,0 0.0327,0.0425 0.06542,0.10467 0.09812,0.18635 0.0327,0.0816 0.06542,0.18299 0.09812,0.30361 0.0327,0.12062 0.06542,0.26068 0.09812,0.41984 0.0327,0.15916 0.06542,0.33755 0.09812,0.53479 0.0327,0.19723 0.06542,0.41344 0.09812,0.6482 0.0327,0.23475 0.06542,0.48817 0.09812,0.7598 0.0327,0.27163 0.06542,0.56157 0.09812,0.86934 0.0327,0.30778 0.06542,0.63348 0.09812,0.97659 0.0327,0.34312 0.06542,0.70374 0.09812,1.08129 0.0327,0.37757 0.06542,0.77217 0.09812,1.18321 0.0327,0.41104 0.06542,0.83862 0.09812,1.28211 0.0327,0.44348 0.06542,0.90296 0.09812,1.37778 0.0327,0.47481 0.06542,0.96505 0.09812,1.47 0.0327,0.50497 0.06542,1.02473 0.09812,1.55859 0.0327,0.53385 0.06542,1.08188 0.09812,1.64332 0.0327,0.56143 0.06542,1.13636 0.09812,1.72402 0.0327,0.58765 0.06542,1.18809 0.09812,1.80051 0.0327,0.61244 0.06542,1.23692 0.09812,1.87265 0.0327,0.63573 0.06542,1.28275 0.09812,1.94025 0.0327,0.65748 0.06542,1.32549 0.09812,2.00316 0.0327,0.67768 0.06542,1.36506 0.09812,2.06129 0.0327,0.69624 0.06542,1.40136 0.09812,2.1145 0.0327,0.71313 0.06542,1.43431 0.09812,2.16265 0.0327,0.72833 0.06542,1.46386 0.09812,2.20567 0.0327,0.74182 0.06542,1.48995 0.09812,2.24349 0.0327,0.75353 0.06542,1.51251 0.09812,2.276 0.0327,0.76348 0.06542,1.53152 0.09812,2.30316 0.0327,0.77165 0.06541,1.54694 0.09812,2.32493 0.0327,0.77799 0.06542,1.55872 0.09812,2.34125 0.0327,0.78252 0.06542,1.56688 0.09812,2.35211 0.0327,0.78524 0.06542,1.57139 0.09812,2.35752 0.0327,0.78612 0.06541,1.57224 0.09812,2.35743 0.0327,0.7852 0.06542,1.56947 0.09812,2.35192 0.0327,0.78245 0.06542,1.56306 0.09812,2.34096 0.0327,0.7779 0.06542,1.55307 0.09812,2.32464 0.0327,0.77157 0.06542,1.53951 0.09812,2.30297 0.0327,0.76347 0.06541,1.52242 0.09812,2.27604 0.0327,0.75362 0.06542,1.50188 0.09812,2.24394 0.0327,0.74206 0.06542,1.47789 0.09812,2.20671 0.0327,0.72882 0.06542,1.45057 0.09812,2.1645 0.0327,0.71392 0.06541,1.41997 0.09812,2.11739 0.0327,0.69742 0.06542,1.38617 0.09812,2.06553 0.0327,0.67935 0.06542,1.34926 0.09812,2.00902 0.0327,0.65977 0.06542,1.30933 0.09812,1.94805 0.0327,0.6387 0.06542,1.26649 0.09812,1.88272 0.0327,0.61623 0.06541,1.22083 0.09812,1.81323 0.0327,0.59239 0.06542,1.1725 0.09812,1.73974 0.0327,0.56726 0.06542,1.12159 0.09812,1.66245 0.0327,0.54088 0.06542,1.06821 0.09812,1.58153 0.0327,0.51331 0.06541,1.01251 0.09812,1.49716 0.0327,0.48465 0.06542,0.95464 0.09812,1.40959 0.0327,0.45494 0.06542,0.89473 0.09812,1.319 0.0327,0.42427 0.06542,0.83292 0.09812,1.22562 0.0327,0.3927 0.06542,0.76937 0.09812,1.12968 0.0327,0.36032 0.06542,0.7042 0.09812,1.03139 0.0327,0.32719 0.06542,0.6376 0.09812,0.931 0.0327,0.29341 0.06542,0.56971 0.09812,0.82876 0.0327,0.25903 0.06542,0.50069 0.09812,0.72486 0.0327,0.22418 0.06542,0.43074 0.09812,0.61963 0.0327,0.18888 0.06542,0.35997 0.09812,0.51324 0.0327,0.15326 0.06542,0.28858 0.09812,0.40598 0.0327,0.11739 0.06542,0.21673 0.09812,0.29809 0.0327,0.0813 0.06542,0.14459 0.09812,0.18981 0.0327,0.0452 0.06542,0.0723 0.09812,0.0814 0.0327,0.009 0.06542,1e-4 0.09812,-0.0269 0.0327,-0.027 0.06542,-0.0719 0.09812,-0.13472 0.0327,-0.0628 0.06542,-0.14354 0.09812,-0.24198 0.0327,-0.0985 0.06542,-0.21465 0.09812,-0.34837 0.0327,-0.13372 0.06542,-0.28504 0.09812,-0.45363 0.0327,-0.16861 0.06542,-0.35458 0.09812,-0.55756 0.0327,-0.20298 0.06542,-0.42308 0.09812,-0.65987 0.0327,-0.23679 0.06542,-0.49039 0.09812,-0.76036 0.0327,-0.26996 0.06542,-0.55639 0.09812,-0.85879 0.0327,-0.30241 0.06542,-0.6209 0.09812,-0.95495 0.0327,-0.33406 0.06542,-0.68379 0.09812,-1.04862 0.0327,-0.36485 0.06542,-0.74489 0.09812,-1.13959 0.0327,-0.39468 0.06542,-0.80409 0.09812,-1.22763 0.0327,-0.42354 0.06542,-0.86128 0.09812,-1.31259 0.0327,-0.45132 0.06542,-0.91629 0.09812,-1.39427 0.0327,-0.47796 0.06542,-0.96901 0.09812,-1.47245 0.0327,-0.50344 0.06542,-1.01935 0.09812,-1.54701 0.0327,-0.52768 0.06542,-1.06717 0.09812,-1.61778 0.0327,-0.5506 0.06542,-1.11237 0.09812,-1.68457 0.0327,-0.5722 0.06542,-1.15487 0.09812,-1.74727 0.0327,-0.5924 0.06542,-1.19458 0.09812,-1.80576 0.0327,-0.61117 0.06542,-1.23139 0.09812,-1.85987 0.0327,-0.62847 0.06542,-1.26525 0.09812,-1.90952 0.0327,-0.64428 0.06542,-1.29609 0.09812,-1.95462 0.0327,-0.65853 0.06541,-1.32382 0.09812,-1.99504 0.0327,-0.67122 0.06542,-1.34841 0.09812,-2.03073 0.0327,-0.68232 0.06542,-1.36981 0.09812,-2.06162 0.0327,-0.69181 0.06542,-1.38796 0.09812,-2.08764 0.0327,-0.69966 0.06541,-1.40286 0.09812,-2.10874 0.0327,-0.70588 0.06542,-1.41447 0.09812,-2.12491 0.0327,-0.71045 0.06542,-1.42277 0.09812,-2.13612 0.0327,-0.71335 0.06542,-1.42773 0.09812,-2.14233 0.0327,-0.7146 0.06542,-1.42941 0.09812,-2.14359 0.0327,-0.71418 0.06541,-1.42774 0.09812,-2.13987 0.0327,-0.71211 0.06542,-1.42278 0.09812,-2.1312 0.0327,-0.70842 0.06542,-1.41457 0.09812,-2.11765 0.0327,-0.70308 0.06542,-1.40309 0.09812,-2.09923 0.0327,-0.69614 0.06541,-1.3884 0.09812,-2.07601 0.0327,-0.6876 0.06542,-1.37054 0.09812,-2.04804 0.0327,-0.67751 0.06542,-1.34957 0.09812,-2.01545 0.0327,-0.66588 0.06542,-1.32554 0.09812,-1.97827 0.0327,-0.65274 0.06542,-1.29851 0.09812,-1.93664 0.0327,-0.63812 0.06541,-1.26855 0.09812,-1.89064 0.0327,-0.62208 0.06542,-1.23577 0.09812,-1.84043 0.0327,-0.60466 0.06542,-1.20023 0.09812,-1.7861 0.0327,-0.58588 0.06542,-1.16201 0.09812,-1.72782 0.0327,-0.5658 0.06541,-1.12123 0.09812,-1.66571 0.0327,-0.54449 0.06542,-1.07797 0.09812,-1.59995 0.0327,-0.52197 0.06542,-1.03236 0.09812,-1.53068 0.0327,-0.49832 0.06542,-0.9845 0.09812,-1.4581 0.0327,-0.47358 0.06542,-0.93451 0.09812,-1.38235 0.0327,-0.44784 0.06542,-0.88253 0.09812,-1.30367 0.0327,-0.42113 0.06542,-0.82864 0.09812,-1.22219 0.0327,-0.39354 0.06542,-0.77302 0.09812,-1.13814 0.0327,-0.36514 0.06542,-0.7158 0.09812,-1.05175 0.0327,-0.33595 0.06542,-0.65709 0.09812,-0.96319 0.0327,-0.30609 0.06542,-0.59703 0.09812,-0.87265 0.0327,-0.27562 0.06542,-0.53581 0.09812,-0.78041 0.0327,-0.2446 0.06542,-0.47352 0.09812,-0.68665 0.0327,-0.21311 0.06542,-0.41034 0.09812,-0.59158 0.0327,-0.18125 0.06542,-0.34642 0.09812,-0.49547 0.0327,-0.14905 0.06542,-0.28188 0.09812,-0.3985 0.0327,-0.11662 0.06542,-0.21692 0.09812,-0.30093 0.0327,-0.084 0.06542,-0.15165 0.09812,-0.20298 0.0327,-0.0513 0.06542,-0.0863 0.09812,-0.10485 0.0327,-0.0186 0.06542,-0.0208 0.09812,-0.007 0.0327,0.0141 0.06542,0.0444 0.09812,0.0909 0.0327,0.0466 0.06542,0.10931 0.09812,0.18814 0.0327,0.0788 0.06542,0.17378 0.09812,0.28461 0.0327,0.11083 0.06542,0.23763 0.09812,0.3801 0.0327,0.14248 0.06542,0.30072 0.09812,0.47442 0.0327,0.17369 0.06542,0.36291 0.09812,0.56731 0.0327,0.2044 0.06542,0.42407 0.09812,0.6586 0.0327,0.23454 0.06542,0.48404 0.09812,0.74807 0.0327,0.26404 0.06542,0.54269 0.09812,0.83552 0.0327,0.29282 0.06542,0.5999 0.09812,0.92074 0.0327,0.32084 0.06542,0.65552 0.09812,1.00354 0.0327,0.34803 0.06542,0.70946 0.09812,1.08377 0.0327,0.37431 0.06542,0.76157 0.09812,1.16122 0.0327,0.39964 0.06542,0.81175 0.09812,1.23572 0.0327,0.42396 0.06542,0.85987 0.09812,1.30711 0.0327,0.44723 0.06542,0.90586 0.09812,1.37524 0.0327,0.46939 0.06542,0.94961 0.09812,1.43998 0.0327,0.49038 0.06542,0.99099 0.09812,1.50115 0.0327,0.51017 0.06542,1.02995 0.09812,1.55866 0.0327,0.5287 0.06541,1.06639 0.09812,1.61235 0.0327,0.54597 0.06542,1.10025 0.09812,1.66214 0.0327,0.5619 0.06542,1.13144 0.09812,1.70791 0.0327,0.57648 0.06542,1.15992 0.09812,1.74959 0.0327,0.58967 0.06542,1.1856 0.09812,1.78706 0.0327,0.60145 0.06542,1.20847 0.09812,1.82027 0.0327,0.61181 0.06542,1.22845 0.09812,1.84915 0.0327,0.62071 0.06542,1.24553 0.09812,1.87368 0.0327,0.62813 0.06542,1.25964 0.09812,1.89374 0.0327,0.6341 0.06542,1.27082 0.09812,1.90939 0.0327,0.63857 0.06542,1.279 0.09812,1.92055 0.0327,0.64153 0.06542,1.2842 0.09812,1.92721 0.0327,0.64302 0.06542,1.2864 0.09812,1.92941 0.0327,0.643 0.06542,1.28563 0.09812,1.92712 0.0327,0.64149 0.06542,1.28187 0.09812,1.92038 0.0327,0.6385 0.06542,1.27515 0.09812,1.9092 0.0327,0.63406 0.06541,1.26552 0.09812,1.89367 0.0327,0.62815 0.06542,1.25297 0.09812,1.87378 0.0327,0.6208 0.06542,1.23756 0.09812,1.84962 0.0327,0.61205 0.06542,1.21936 0.09812,1.82126 0.0327,0.60191 0.06542,1.1984 0.09812,1.7888 0.0327,0.59041 0.06542,1.17471 0.09812,1.75228 0.0327,0.57758 0.06542,1.1484 0.09812,1.71185 0.0327,0.56346 0.06542,1.11951 0.09812,1.66758 0.0327,0.54808 0.06542,1.08813 0.09812,1.61961 0.0327,0.53148 0.06542,1.05434 0.09812,1.56805 0.0327,0.5137 0.06542,1.01822 0.09812,1.51303 0.0327,0.49481 0.06542,0.97987 0.09812,1.45471 0.0327,0.47483 0.06542,0.93938 0.09812,1.39321 0.0327,0.45382 0.06542,0.89686 0.09812,1.32871 0.0327,0.43183 0.06542,0.85241 0.09812,1.26134 0.0327,0.40893 0.06542,0.80615 0.09812,1.1913 0.0327,0.38516 0.06542,0.75818 0.09812,1.11875 0.0327,0.36057 0.06542,0.70862 0.09812,1.04385 0.0327,0.33524 0.06542,0.65758 0.09812,0.96679 0.0327,0.30922 0.06542,0.60521 0.09812,0.88778 0.0327,0.28257 0.06542,0.55163 0.09812,0.80699 0.0327,0.25536 0.06542,0.49694 0.09812,0.7246 0.0327,0.22766 0.06542,0.44131 0.09812,0.64083 0.0327,0.19953 0.06542,0.38485 0.09812,0.55588 0.0327,0.17104 0.06542,0.32769 0.09812,0.46995 0.0327,0.14224 0.06542,0.26998 0.09812,0.38321 0.0327,0.11323 0.06542,0.21185 0.09812,0.29592 0.0327,0.084 0.06542,0.15344 0.09812,0.20823 0.0327,0.0548 0.06542,0.0949 0.09812,0.12039 0.0327,0.0255 0.06542,0.0363 0.09812,0.0326 0.0327,-0.004 0.06542,-0.0222 0.09812,-0.055 0.0327,-0.0328 0.06542,-0.0803 0.09812,-0.14211 0.0327,-0.0618 0.06542,-0.13809 0.09812,-0.2286 0.0327,-0.0905 0.06542,-0.19534 0.09812,-0.31424 0.0327,-0.11888 0.06542,-0.25192 0.09812,-0.39882 0.0327,-0.1469 0.06542,-0.30775 0.09812,-0.48222 0.0327,-0.17446 0.06542,-0.36264 0.09812,-0.56416 0.0327,-0.20152 0.06542,-0.41648 0.09812,-0.64451 0.0327,-0.22801 0.06542,-0.46917 0.09812,-0.72306 0.0327,-0.25389 0.06542,-0.52059 0.09812,-0.79967 0.0327,-0.27908 0.06542,-0.5706 0.09812,-0.87412 0.0327,-0.30353 0.06542,-0.61912 0.09812,-0.9463 0.0327,-0.32718 0.06542,-0.66601 0.09812,-1.016 0.0327,-0.35 0.06541,-0.7112 0.09812,-1.0831 0.0327,-0.3719 0.06542,-0.75456 0.09812,-1.14744 0.0327,-0.39288 0.06542,-0.79603 0.09812,-1.20889 0.0327,-0.41286 0.06542,-0.83548 0.09812,-1.26729 0.0327,-0.43182 0.06542,-0.87287 0.09812,-1.32256 0.0327,-0.4497 0.06542,-0.90808 0.09812,-1.37455 0.0327,-0.46647 0.06542,-0.94106 0.09812,-1.42316 0.0327,-0.4821 0.06542,-0.97174 0.09812,-1.46829 0.0327,-0.49655 0.06542,-1.00005 0.09812,-1.50984 0.0327,-0.50981 0.06541,-1.02594 0.09812,-1.54776 0.0327,-0.52182 0.06542,-1.04935 0.09812,-1.58193 0.0327,-0.53258 0.06542,-1.07024 0.09812,-1.61231 0.0327,-0.54206 0.06542,-1.08857 0.09812,-1.63883 0.0327,-0.55026 0.06542,-1.10431 0.09812,-1.66147 0.0327,-0.55715 0.06542,-1.11744 0.09812,-1.68016 0.0327,-0.56273 0.06542,-1.12791 0.09812,-1.69488 0.0327,-0.56698 0.06542,-1.13574 0.09812,-1.70563 0.0327,-0.56988 0.06542,-1.1409 0.09812,-1.71237 0.0327,-0.57147 0.06542,-1.1434 0.09812,-1.71512 0.0327,-0.57173 0.06542,-1.14325 0.09812,-1.71389 0.0327,-0.57066 0.06542,-1.14043 0.09812,-1.70869 0.0327,-0.56826 0.06542,-1.13498 0.09812,-1.69954 0.0327,-0.56455 0.06542,-1.12693 0.09812,-1.68649 0.0327,-0.55956 0.06542,-1.11629 0.09812,-1.66957 0.0327,-0.55329 0.06542,-1.10311 0.09812,-1.64887 0.0327,-0.54575 0.06542,-1.08742 0.09812,-1.62439 0.0327,-0.53699 0.06542,-1.06927 0.09812,-1.59627 0.0327,-0.52701 0.06542,-1.0487 0.09812,-1.56455 0.0327,-0.51584 0.06542,-1.02579 0.09812,-1.52931 0.0327,-0.50352 0.06542,-1.00059 0.09812,-1.49068 0.0327,-0.49008 0.06542,-0.97315 0.09812,-1.44873 0.0327,-0.47556 0.06542,-0.94358 0.09812,-1.40358 0.0327,-0.46 0.06542,-0.91194 0.09812,-1.35537 0.0327,-0.44343 0.06542,-0.8783 0.09812,-1.30419 0.0327,-0.4259 0.06542,-0.84276 0.09812,-1.25019 0.0327,-0.40745 0.06542,-0.8054 0.09812,-1.19351 0.0327,-0.38812 0.06542,-0.76632 0.09812,-1.13428 0.0327,-0.36797 0.06542,-0.72562 0.09812,-1.07266 0.0327,-0.34703 0.06542,-0.68338 0.09812,-1.00878 0.0327,-0.32539 0.06542,-0.63975 0.09812,-0.94282 0.0327,-0.30307 0.06542,-0.59479 0.09812,-0.87494 0.0327,-0.28014 0.06542,-0.54864 0.09812,-0.8053 0.0327,-0.25665 0.06542,-0.50139 0.09812,-0.73405 0.0327,-0.23267 0.06542,-0.45319 0.09812,-0.66142 0.0327,-0.20823 0.06542,-0.40411 0.09812,-0.58752 0.0327,-0.18341 0.06542,-0.35428 0.09812,-0.51255 0.0327,-0.15827 0.06542,-0.30385 0.09812,-0.43671 0.0327,-0.13285 0.06542,-0.2529 0.09812,-0.36015 0.0327,-0.10723 0.06542,-0.20158 0.09812,-0.28306 0.0327,-0.0814 0.06542,-0.15 0.09812,-0.20563 0.0327,-0.0556 0.06542,-0.0983 0.09812,-0.12804 0.0327,-0.0297 0.06542,-0.0466 0.09812,-0.0505 0.0327,-0.004 0.06541,0.005 0.09812,0.0269 0.0327,0.0219 0.06542,0.0565 0.09812,0.10391 0.0327,0.0474 0.06542,0.10758 0.09812,0.18035 0.0327,0.0727 0.06542,0.1582 0.09812,0.25607 0.0327,0.0979 0.06542,0.20824 0.09812,0.33088 0.0327,0.12263 0.06542,0.2576 0.09812,0.40462 0.0327,0.14701 0.06542,0.30615 0.09812,0.4771 0.0327,0.17094 0.06542,0.35379 0.09812,0.54818 0.0327,0.1944 0.06542,0.40042 0.09812,0.61772 0.0327,0.21728 0.06541,0.44591 0.09812,0.6855 0.0327,0.23958 0.06542,0.4902 0.09812,0.75143 0.0327,0.26123 0.06542,0.53315 0.09812,0.81534 0.0327,0.28219 0.06542,0.5747 0.09812,0.87709 0.0327,0.3024 0.06542,0.61473 0.09812,0.93655 0.0327,0.32182 0.06542,0.65317 0.09812,0.99359 0.0327,0.34041 0.06542,0.68993 0.09812,1.04806 0.0327,0.35814 0.06542,0.72494 0.09812,1.0999 0.0327,0.37496 0.06542,0.75811 0.09812,1.14895 0.0327,0.39084 0.06541,0.7894 0.09812,1.19513 0.0327,0.40574 0.06542,0.81872 0.09812,1.23836 0.0327,0.41964 0.06542,0.84599 0.09812,1.27849 0.0327,0.43251 0.06542,0.8712 0.09812,1.31552 0.0327,0.44432 0.06542,0.89429 0.09812,1.34933 0.0327,0.45504 0.06542,0.91519 0.09812,1.37985 0.0327,0.46467 0.06542,0.93388 0.09812,1.40705 0.0327,0.47317 0.06542,0.95032 0.09812,1.43085 0.0327,0.48054 0.06542,0.96449 0.09812,1.45126 0.0327,0.48675 0.06542,0.97634 0.09812,1.46818 0.0327,0.49182 0.06542,0.98589 0.09812,1.48161 0.0327,0.49573 0.06542,0.99312 0.09812,1.49158 0.0327,0.49846 0.06542,0.998 0.09812,1.49802 0.0327,0.50003 0.06542,1.00054 0.09812,1.50096 0.0327,0.50042 0.06542,1.00074 0.09812,1.50039 0.0327,0.49965 0.06542,0.99862 0.09812,1.49635 0.0327,0.49773 0.06542,0.9942 0.09812,1.48885 0.0327,0.49466 0.06542,0.98749 0.09812,1.47793 0.0327,0.49045 0.06542,0.97849 0.09812,1.46362 0.0327,0.48512 0.06542,0.96728 0.09812,1.44596 0.0327,0.4787 0.06542,0.95388 0.09812,1.42505 0.0327,0.47117 0.06542,0.93831 0.09812,1.4009 0.0327,0.4626 0.06542,0.92062 0.09812,1.37361 0.0327,0.45298 0.06542,0.90089 0.09812,1.34324 0.0327,0.44236 0.06542,0.87914 0.09812,1.3099 0.0327,0.43076 0.06542,0.85546 0.09812,1.27367 0.0327,0.4182 0.06542,0.82988 0.09812,1.23462 0.0327,0.40473 0.06542,0.8025 0.09812,1.19289 0.0327,0.39039 0.06542,0.77337 0.09812,1.14857 0.0327,0.37521 0.06542,0.74259 0.09812,1.10179 0.0327,0.35921 0.06542,0.71021 0.09812,1.05266 0.0327,0.34245 0.06542,0.67632 0.09812,1.00129 0.0327,0.32498 0.06542,0.64102 0.09812,0.94785 0.0327,0.30683 0.06542,0.60438 0.09812,0.89243 0.0327,0.28804 0.06542,0.56652 0.09812,0.8352 0.0327,0.26867 0.06542,0.52751 0.09812,0.77628 0.0327,0.24877 0.06542,0.48745 0.09812,0.71584 0.0327,0.22838 0.06542,0.44643 0.09812,0.65398 0.0327,0.20757 0.06542,0.40459 0.09812,0.59093 0.0327,0.18635 0.06542,0.36197 0.09812,0.52676 0.0327,0.1648 0.06542,0.31871 0.09812,0.46168 0.0327,0.14297 0.06542,0.27492 0.09812,0.39582 0.0327,0.1209 0.06542,0.23069 0.09812,0.32935 0.0327,0.0987 0.06541,0.18613 0.09812,0.26241 0.0327,0.0763 0.06542,0.14134 0.09812,0.19518 0.0327,0.0539 0.06542,0.0964 0.09812,0.12783 0.0327,0.0314 0.06542,0.0515 0.09812,0.0604 0.0327,0.009 0.06542,0.007 0.09812,-0.007 0.0327,-0.0134 0.06542,-0.038 0.09812,-0.0736 0.0327,-0.0356 0.06542,-0.0823 0.09812,-0.13993 0.0327,-0.0577 0.06542,-0.12624 0.09812,-0.20565 0.0327,-0.0794 0.06542,-0.16968 0.09812,-0.27058 0.0327,-0.10094 0.06541,-0.21252 0.09812,-0.33459 0.0327,-0.12206 0.06542,-0.25465 0.09812,-0.3975 0.0327,-0.14284 0.06542,-0.29601 0.09812,-0.4592 0.0327,-0.16319 0.06542,-0.33646 0.09812,-0.51952 0.0327,-0.18305 0.06542,-0.37595 0.09812,-0.57835 0.0327,-0.20241 0.06542,-0.41438 0.09812,-0.63557 0.0327,-0.22119 0.06542,-0.45165 0.09812,-0.69103 0.0327,-0.23936 0.06542,-0.48769 0.09812,-0.74459 0.0327,-0.2569 0.06542,-0.52243 0.09812,-0.79619 0.0327,-0.27375 0.06542,-0.55579 0.09812,-0.84568 0.0327,-0.28989 0.06542,-0.58768 0.09812,-0.89296 0.0327,-0.30527 0.06542,-0.61806 0.09812,-0.93793 0.0327,-0.31987 0.06542,-0.64685 0.09812,-0.9805 0.0327,-0.33365 0.06542,-0.674 0.09812,-1.02059 0.0327,-0.34658 0.06542,-0.69943 0.09812,-1.05809 0.0327,-0.35865 0.06542,-0.72314 0.09812,-1.09296 0.0327,-0.36983 0.06542,-0.74503 0.09812,-1.12512 0.0327,-0.38008 0.06542,-0.76508 0.09812,-1.15448 0.0327,-0.38941 0.06542,-0.78325 0.09812,-1.18103 0.0327,-0.39778 0.06542,-0.79952 0.09812,-1.20469 0.0327,-0.40518 0.06542,-0.81384 0.09812,-1.22544 0.0327,-0.41161 0.06542,-0.82618 0.09812,-1.24321 0.0327,-0.41704 0.06542,-0.83656 0.09812,-1.25802 0.0327,-0.42148 0.06542,-0.84493 0.09812,-1.26983 0.0327,-0.4249 0.06542,-0.85127 0.09812,-1.27861 0.0327,-0.42732 0.06542,-0.85562 0.09812,-1.28437 0.0327,-0.42875 0.06542,-0.85795 0.09812,-1.28712 0.0327,-0.42916 0.06542,-0.85828 0.09812,-1.28684 0.0327,-0.42858 0.06542,-0.85661 0.09812,-1.28361 0.0327,-0.42698 0.06542,-0.85293 0.09812,-1.27735 0.0327,-0.42443 0.06542,-0.84732 0.09812,-1.2682 0.0327,-0.42087 0.06542,-0.83973 0.09812,-1.25611 0.0327,-0.41637 0.06542,-0.83024 0.09812,-1.24116 0.0327,-0.41092 0.06542,-0.81888 0.09812,-1.22341 0.0327,-0.40454 0.06542,-0.80564 0.09812,-1.20289 0.0327,-0.39725 0.06542,-0.79062 0.09812,-1.17968 0.0327,-0.38908 0.06542,-0.77382 0.09812,-1.15386 0.0327,-0.38002 0.06542,-0.7553 0.09812,-1.12545 0.0327,-0.37015 0.06542,-0.73513 0.09812,-1.09458 0.0327,-0.35946 0.06542,-0.71335 0.09812,-1.06134 0.0327,-0.34798 0.06542,-0.69001 0.09812,-1.02578 0.0327,-0.33576 0.06542,-0.66521 0.09812,-0.98803 0.0327,-0.32282 0.06542,-0.63897 0.09812,-0.94815 0.0327,-0.3092 0.06541,-0.61139 0.09812,-0.90631 0.0327,-0.29492 0.06542,-0.58252 0.09812,-0.86255 0.0327,-0.28003 0.06542,-0.55245 0.09812,-0.81703 0.0327,-0.26456 0.06542,-0.52125 0.09812,-0.76982 0.0327,-0.24859 0.06542,-0.48902 0.09812,-0.72111 0.0327,-0.23209 0.06542,-0.45579 0.09812,-0.67094 0.0327,-0.21515 0.06542,-0.42169 0.09812,-0.61949 0.0327,-0.1978 0.06542,-0.3868 0.09812,-0.56688 0.0327,-0.18008 0.06542,-0.35118 0.09812,-0.51322 0.0327,-0.16204 0.06541,-0.31495 0.09812,-0.45866 0.0327,-0.14371 0.06542,-0.27817 0.09812,-0.40332 0.0327,-0.12516 0.06542,-0.24095 0.09812,-0.34735 0.0327,-0.1064 0.06542,-0.20336 0.09812,-0.29086 0.0327,-0.0875 0.06542,-0.1655 0.09812,-0.234 0.0327,-0.0685 0.06542,-0.12748 0.09812,-0.17693 0.0327,-0.0494 0.06542,-0.0893 0.09812,-0.11974 0.0327,-0.0304 0.06542,-0.0512 0.09812,-0.0626 0.0327,-0.0114 0.06542,-0.0132 0.09812,-0.005 0.0327,0.007 0.06541,0.0246 0.09812,0.0511 0.0327,0.0264 0.06542,0.0623 0.09812,0.10732 0.0327,0.045 0.06542,0.0995 0.09812,0.16301 0.0327,0.0635 0.06542,0.13627 0.09812,0.218 0.0327,0.0818 0.06542,0.17254 0.09812,0.27218 0.0327,0.0996 0.06542,0.2082 0.09812,0.32542 0.0327,0.11722 0.06542,0.24317 0.09812,0.3776 0.0327,0.13443 0.06542,0.27738 0.09812,0.4286 0.0327,0.15121 0.06542,0.31075 0.09812,0.47831 0.0327,0.16757 0.06542,0.34321 0.09812,0.52664 0.0327,0.18343 0.06542,0.37468 0.09812,0.57344 0.0327,0.19877 0.06542,0.4051 0.09812,0.61865 0.0327,0.21357 0.06542,0.43439 0.09812,0.66217 0.0327,0.22776 0.06542,0.4625 0.09812,0.70386 0.0327,0.24136 0.06542,0.48938 0.09812,0.74369 0.0327,0.25431 0.06542,0.51495 0.09812,0.78155 0.0327,0.26659 0.06542,0.53918 0.09812,0.81737 0.0327,0.27819 0.06542,0.56201 0.09812,0.85106 0.0327,0.28906 0.06542,0.58339 0.09812,0.88258 0.0327,0.29919 0.06542,0.60328 0.09812,0.91185 0.0327,0.30857 0.06542,0.62165 0.09812,0.93881 0.0327,0.31718 0.06542,0.63846 0.09812,0.96344 0.0327,0.32498 0.06542,0.65367 0.09812,0.98565 0.0327,0.33199 0.06542,0.66727 0.09812,1.00545 0.0327,0.33816 0.06542,0.67923 0.09812,1.02276 0.0327,0.34353 0.06542,0.68953 0.09812,1.03758 0.0327,0.34805 0.06542,0.69817 0.09812,1.0499 0.0327,0.35174 0.06542,0.70511 0.09812,1.05969 0.0327,0.35458 0.06542,0.71036 0.09812,1.06694 0.0327,0.35657 0.06542,0.71393 0.09812,1.07165 0.0327,0.35771 0.06542,0.7158 0.09812,1.07383 0.0327,0.35803 0.06542,0.71599 0.09812,1.07349 0.0327,0.35749 0.06542,0.7145 0.09812,1.07063 0.0327,0.35613 0.06542,0.71136 0.09812,1.06529 0.0327,0.35394 0.06542,0.70657 0.09812,1.05749 0.0327,0.35094 0.06542,0.70015 0.09812,1.04728 0.0327,0.34712 0.06542,0.69213 0.09812,1.03466 0.0327,0.34252 0.06542,0.68254 0.09812,1.0197 0.0327,0.33716 0.06542,0.67143 0.09812,1.00246 0.0327,0.33104 0.06542,0.65881 0.09812,0.98297 0.0327,0.32418 0.06542,0.64473 0.09812,0.96132 0.0327,0.31659 0.06542,0.62921 0.09812,0.93753 0.0327,0.30831 0.06542,0.61232 0.09812,0.9117 0.0327,0.29938 0.06541,0.59411 0.09812,0.88391 0.0327,0.28979 0.06542,0.57463 0.09812,0.85422 0.0327,0.27958 0.06542,0.55391 0.09812,0.82271 0.0327,0.2688 0.06542,0.53204 0.09812,0.78948 0.0327,0.25744 0.06542,0.50905 0.09812,0.75461 0.0327,0.24556 0.06542,0.48502 0.09812,0.7182 0.0327,0.23318 0.06542,0.46002 0.09812,0.68034 0.0327,0.22032 0.06542,0.43408 0.09812,0.64112 0.0327,0.20704 0.06542,0.40731 0.09812,0.60065 0.0327,0.19336 0.06541,0.37975 0.09812,0.55906 0.0327,0.1793 0.06542,0.35146 0.09812,0.5164 0.0327,0.16492 0.06542,0.32255 0.09812,0.4728 0.0327,0.15026 0.06542,0.29309 0.09812,0.42841 0.0327,0.13532 0.06542,0.2631 0.09812,0.38328 0.0327,0.12018 0.06542,0.23272 0.09812,0.33756 0.0327,0.10485 0.06542,0.20197 0.09812,0.29135 0.0327,0.0893 0.06542,0.17095 0.09812,0.24475 0.0327,0.0738 0.06542,0.13975 0.09812,0.19789 0.0327,0.0582 0.06541,0.10842 0.09812,0.15088 0.0327,0.0425 0.06542,0.077 0.09812,0.10382 0.0327,0.0268 0.06542,0.0457 0.09812,0.0568 0.0327,0.0112 0.06542,0.0145 0.09812,0.0103 0.0327,-0.004 0.06542,-0.0166 0.09812,-0.0365 0.0327,-0.0199 0.06542,-0.0474 0.09812,-0.0826 0.0327,-0.0352 0.06542,-0.078 0.09812,-0.12818 0.0327,-0.0503 0.06542,-0.10803 0.09812,-0.17317 0.0327,-0.0651 0.06542,-0.13768 0.09812,-0.21744 0.0327,-0.0798 0.06542,-0.16681 0.09812,-0.26092 0.0327,-0.0941 0.06542,-0.19533 0.09812,-0.30347 0.0327,-0.10812 0.06542,-0.22321 0.09812,-0.345 0.0327,-0.12181 0.06542,-0.25037 0.09812,-0.38548 0.0327,-0.13509 0.06542,-0.27675 0.09812,-0.42473 0.0327,-0.14796 0.06542,-0.3023 0.09812,-0.46272 0.0327,-0.16042 0.06542,-0.32696 0.09812,-0.49936 0.0327,-0.17239 0.06542,-0.35068 0.09812,-0.53457 0.0327,-0.18389 0.06542,-0.37342 0.09812,-0.56829 0.0327,-0.19486 0.06542,-0.3951 0.09812,-0.60041 0.0327,-0.2053 0.06542,-0.41571 0.09812,-0.6309 0.0327,-0.2152 0.06542,-0.43521 0.09812,-0.65971 0.0327,-0.22449 0.06542,-0.45352 0.09812,-0.68674 0.0327,-0.2332 0.06542,-0.47064 0.09812,-0.71196 0.0327,-0.24132 0.06542,-0.48654 0.09812,-0.73534 0.0327,-0.24879 0.06542,-0.50118 0.09812,-0.75681 0.0327,-0.25563 0.06542,-0.51453 0.09812,-0.77635 0.0327,-0.26182 0.06542,-0.52658 0.09812,-0.79392 0.0327,-0.26734 0.06542,-0.53729 0.09812,-0.80949 0.0327,-0.2722 0.06542,-0.54667 0.09812,-0.82304 0.0327,-0.27638 0.06542,-0.55468 0.09812,-0.83456 0.0327,-0.27988 0.06542,-0.56134 0.09812,-0.84403 0.0327,-0.2827 0.06542,-0.56662 0.09812,-0.85143 0.0327,-0.28482 0.06542,-0.57053 0.09812,-0.85678 0.0327,-0.28626 0.06542,-0.57307 0.09812,-0.86008 0.0327,-0.28701 0.06541,-0.57422 0.09812,-0.8613 0.0327,-0.28708 0.06541,-0.57403 0.09812,-0.86051 0.03272,-0.28648 0.06543,-0.57249 0.09812,-0.85768 0.03262,-0.2852 0.06543,-0.5696 0.09812,-0.85286 0.03272,-0.28327 0.06543,-0.5654 0.09812,-0.84607 0.03272,-0.28067 0.06543,-0.55988 0.09812,-0.83731 0.03271,-0.27744 0.06543,-0.5531 0.09812,-0.82667 0.03271,-0.27357 0.06543,-0.54505 0.09812,-0.81415 0.03262,-0.26909 0.06543,-0.53579 0.09813,-0.7998 0.03262,-0.26403 0.06533,-0.52534 0.09811,-0.78369 0.03271,-0.25836 0.06543,-0.51372 0.09812,-0.76585 0.03272,-0.25212 0.06543,-0.50098 0.09812,-0.74632 0.03272,-0.24536 0.06543,-0.48716 0.09812,-0.72521"
       style="fill:none;fill-opacity:1;stroke:#0000ff;stroke-width:2;stroke-miterlimit:4;stroke-dasharray:none;stroke-dashoffset:0;stroke-opacity:1"
       inkscape:connector-curvature="0" />
  </g>
  <g
     inkscape:groupmode="layer"
     id="layer3"
     inkscape:label="Lambda outline"
     sodipodi:insensitive="true">
    <path
       sodipodi:type="inkscape:offset"
       inkscape:radius="2.0924797"
       inkscape:original="M 40.923828 25.003906 C 38.971958 25.003906 37.556076 25.784207 36.677734 27.345703 C 35.799393 28.907199 35.361328 30.712255 35.361328 32.761719 L 35.361328 34.007812 L 36.751953 34.007812 C 37.483904 31.421584 38.727692 30.126953 40.484375 30.126953 C 41.411513 30.126953 42.240705 30.396829 42.972656 30.933594 C 43.704608 31.421561 44.291298 32.17644 44.730469 33.201172 C 45.218436 34.225904 45.584141 35.129408 45.828125 35.910156 C 46.120906 36.690904 46.414251 37.715659 46.707031 38.984375 C 46.999812 40.253091 47.193422 41.033391 47.291016 41.326172 L 34.263672 74.337891 L 40.484375 74.337891 L 49.853516 49.890625 L 50 49.890625 L 54.246094 66.505859 C 54.490078 67.530591 54.683688 68.287423 54.830078 68.775391 C 54.976468 69.214561 55.246345 69.920549 55.636719 70.896484 C 56.027093 71.823623 56.416267 72.531564 56.806641 73.019531 C 57.245811 73.507499 57.80708 73.947517 58.490234 74.337891 C 59.222186 74.777061 60.002486 74.996094 60.832031 74.996094 C 64.101414 74.996094 65.736328 72.531988 65.736328 67.603516 L 65.736328 65.261719 L 64.273438 65.261719 C 64.224641 66.286451 63.907827 67.262315 63.322266 68.189453 C 62.785501 69.067795 62.003248 69.505859 60.978516 69.505859 C 59.953784 69.505859 59.052233 69.067795 58.271484 68.189453 C 57.344346 67.164721 56.417373 64.968539 55.490234 61.601562 L 48.316406 36.568359 C 48.267609 36.421969 48.072046 35.762919 47.730469 34.591797 C 47.437688 33.371878 47.193234 32.493796 46.998047 31.957031 C 46.851657 31.37147 46.560265 30.565748 46.121094 29.541016 C 45.681923 28.467487 45.241905 27.663717 44.802734 27.126953 C 44.363564 26.590189 43.802295 26.10128 43.119141 25.662109 C 42.435986 25.222939 41.704576 25.003906 40.923828 25.003906 z "
       xlink:href="#text918-9"
       style="font-style:normal;font-weight:normal;font-size:73.19513702px;line-height:1.25;font-family:sans-serif;letter-spacing:0px;word-spacing:0px;fill:#ffffff;fill-opacity:1;stroke:none;stroke-width:0.26458341"
       id="path959"
       inkscape:href="#text918-9"
       d="m 40.923828,22.912109 c -2.509545,0 -4.866924,1.268848 -6.070312,3.408203 -1.070408,1.902949 -1.583985,4.09377 -1.583985,6.441407 v 1.246093 a 2.092689,2.092689 0 0 0 2.091797,2.091797 h 1.390625 a 2.092689,2.092689 0 0 0 2.013672,-1.521484 c 0.306316,-1.082316 0.695396,-1.738824 0.976563,-2.03125 0.281166,-0.292426 0.37788,-0.328125 0.742187,-0.328125 0.521078,0 0.856051,0.113447 1.25,0.402344 a 2.092689,2.092689 0 0 0 0.07813,0.05273 c 0.332611,0.22174 0.674196,0.605025 0.994141,1.351563 a 2.092689,2.092689 0 0 0 0.03516,0.07617 c 0.457178,0.960076 0.78477,1.78236 0.988281,2.433594 a 2.092689,2.092689 0 0 0 0.03906,0.109375 c 0.242763,0.647367 0.519396,1.599673 0.798828,2.810547 0.200812,0.870186 0.308584,1.249435 0.433593,1.71875 L 32.316406,73.570312 a 2.092689,2.092689 0 0 0 1.947266,2.859376 h 6.220703 a 2.092689,2.092689 0 0 0 1.953125,-1.34375 l 7.105469,-18.535157 2.675781,10.472657 c 0.243135,1.019804 0.438205,1.789458 0.607422,2.353515 a 2.092689,2.092689 0 0 0 0.01953,0.06055 c 0.177622,0.532866 0.451554,1.246071 0.847656,2.236328 a 2.092689,2.092689 0 0 0 0.01563,0.03516 c 0.435552,1.034437 0.879579,1.888049 1.462891,2.617188 a 2.092689,2.092689 0 0 0 0.08008,0.09375 c 0.607692,0.675215 1.345423,1.238311 2.177735,1.716797 1.028082,0.613453 2.2099,0.951172 3.402343,0.951172 2.160386,0 4.249216,-1.015631 5.421875,-2.783203 1.17266,-1.767573 1.574219,-4.005558 1.574219,-6.701172 v -2.341797 a 2.092689,2.092689 0 0 0 -2.091797,-2.091797 h -1.46289 a 2.092689,2.092689 0 0 0 -2.089844,1.992187 c -0.03133,0.657956 -0.217329,1.2554 -0.63086,1.910157 a 2.092689,2.092689 0 0 0 -0.01563,0.02539 c -0.226502,0.370641 -0.130206,0.316406 -0.558593,0.316406 -0.428388,0 -0.66371,-0.07651 -1.142578,-0.615234 a 2.092689,2.092689 0 0 0 -0.01367,-0.01367 C 59.4275,66.348837 58.402007,64.294211 57.507812,61.046875 a 2.092689,2.092689 0 0 0 -0.0059,-0.02148 L 50.328125,35.992188 a 2.092689,2.092689 0 0 0 -0.02734,-0.08594 c 0.01662,0.04987 -0.221949,-0.732789 -0.5625,-1.900391 -0.271784,-1.125143 -0.501158,-1.955073 -0.732422,-2.613281 -0.195121,-0.763117 -0.506294,-1.607556 -0.955078,-2.65625 C 47.566682,27.555073 47.072844,26.598363 46.421875,25.802734 45.823742,25.071682 45.088837,24.441597 44.25,23.902344 43.26159,23.266939 42.095929,22.912109 40.923828,22.912109 Z" />
    <text
       xml:space="preserve"
       style="font-style:normal;font-weight:normal;font-size:73.19513702px;line-height:1.25;font-family:sans-serif;letter-spacing:0px;word-spacing:0px;fill:#000000;fill-opacity:1;stroke:none;stroke-width:0.26458341"
       x="32.506363"
       y="74.264191"
       id="text918-9"><tspan
         sodipodi:role="line"
         id="tspan916-1"
         x="32.506363"
         y="74.264191"
         style="font-style:normal;font-variant:normal;font-weight:normal;font-stretch:normal;font-family:freeserif;-inkscape-font-specification:freeserif;stroke-width:0.26458341"></tspan></text>
  </g>
  <g
     inkscape:groupmode="layer"
     id="layer2"
     inkscape:label="Lambda"
     sodipodi:insensitive="true">
    <text
       xml:space="preserve"
       style="font-style:normal;font-weight:normal;font-size:73.19513702px;line-height:1.25;font-family:sans-serif;letter-spacing:0px;word-spacing:0px;fill:#000000;fill-opacity:1;stroke:none;stroke-width:0.26458335"
       x="32.506363"
       y="74.264191"
       id="text918"><tspan
         sodipodi:role="line"
         id="tspan916"
         x="32.506363"
         y="74.264191"
         style="font-style:normal;font-variant:normal;font-weight:normal;font-stretch:normal;font-family:freeserif;-inkscape-font-specification:freeserif;stroke-width:0.26458335"></tspan></text>
  </g>
</svg>
